<svg width="1260" height="1607" viewBox="0 0 1260 1607" fill="none" xmlns="http://www.w3.org/2000/svg">
<g clip-path="url(#clip0)">
<path d="M618.231 1375.18L618.314 1375.19L618.692 1372.02C618.949 1370.38 619.232 1368.74 619.293 1367.09L723.159 508.128C725.192 493.738 719.742 478.725 707.285 469.374C693.792 459.245 676.104 458.698 662.295 466.502L662.273 466.456L-127.355 803.374L-127.169 803.815C-136.378 806.007 -144.537 811.334 -150.248 818.883C-156.807 827.62 -159.627 838.603 -158.09 849.419C-156.552 860.235 -150.783 869.997 -142.05 876.56L553.447 1398.64C562.186 1405.2 573.17 1408.01 583.985 1406.47C594.801 1404.93 604.561 1399.16 611.122 1390.42C614.643 1385.73 616.962 1380.54 618.231 1375.18ZM252.743 1075.61C226.361 1055.8 220.553 1019.05 240.349 992.68C260.153 966.298 297.532 960.974 323.922 980.785C349.652 1000.1 354.992 1037.48 335.182 1063.87C330.547 1070.06 324.735 1075.28 318.08 1079.22C311.425 1083.16 304.057 1085.75 296.399 1086.84C288.741 1087.93 280.943 1087.5 273.451 1085.58C265.96 1083.65 258.923 1080.26 252.743 1075.61ZM612.438 694.514L417.442 954.282L417.423 954.269L417.331 954.429C409.249 965.197 394.182 967.105 383.681 959.222L383.559 959.116L327.622 917.141C316.846 909.052 314.481 894.058 322.563 883.291L322.692 883.158L322.673 883.144L517.146 624.073C517.316 623.828 517.424 623.55 517.604 623.311C525.3 613.058 539.297 610.95 549.684 617.57L549.795 617.423L607.515 660.751C618.014 668.733 620.365 683.285 612.762 693.968L612.808 694.002L612.438 694.514Z" fill="#F82508" fill-opacity="0.1"/>
</g>
<defs>
<clipPath id="clip0">
<rect width="1147.79" height="1147.79" fill="white" transform="translate(342.059) rotate(36.894)"/>
</clipPath>
</defs>
</svg>
