<svg width="26" height="22" viewBox="0 0 26 22" fill="none" xmlns="http://www.w3.org/2000/svg">
<path d="M25.9489 2.95047C24.9757 3.37825 23.945 3.66077 22.8898 3.78897C24.0021 3.12134 24.8349 2.07325 25.2339 0.838781C24.1817 1.44897 23.0366 1.88237 21.8441 2.12172C21.0422 1.2649 19.9799 0.696694 18.8221 0.505248C17.6643 0.313802 16.4757 0.509822 15.4406 1.0629C14.4056 1.61597 13.582 2.49518 13.0977 3.56411C12.6134 4.63304 12.4954 5.83193 12.762 6.97478C8.33141 6.76759 4.40379 4.63884 1.77698 1.42297C1.2988 2.23619 1.04871 3.16328 1.05304 4.10666C1.05239 4.98364 1.26831 5.84721 1.68162 6.62069C2.09494 7.39417 2.69286 8.05361 3.42229 8.54047C2.57698 8.51492 1.75009 8.2873 1.01079 7.87666V7.94084C1.01053 9.1718 1.4359 10.365 2.21479 11.3182C2.99369 12.2714 4.07821 12.9259 5.28454 13.1709C4.82758 13.293 4.35677 13.3555 3.88379 13.357C3.54173 13.357 3.2151 13.3237 2.88929 13.2635C3.23259 14.3228 3.89761 15.2487 4.79176 15.9123C5.68592 16.576 6.76473 16.9443 7.87804 16.9661C5.99175 18.4433 3.66424 19.2447 1.26835 19.2419C0.843987 19.2436 0.419907 19.2197 -0.00158691 19.1704C2.44249 20.7365 5.28483 21.5678 8.1876 21.5657C17.992 21.5657 23.3497 13.4447 23.3497 6.41172C23.3497 6.18747 23.3497 5.95916 23.3326 5.73003C24.3806 4.97891 25.2838 4.04405 25.9984 2.97078L25.9489 2.95047Z" fill="#FFD84D"/>
</svg>
