<svg width="1800" height="2802" viewBox="10 0 1600 2800" fill="none" xmlns="http://www.w3.org/2000/svg">
<rect width="1600" height="2802" fill="white"/>
<g opacity="0.1">
<ellipse cx="1281.91" cy="1310.99" rx="361.463" ry="344.276" transform="rotate(-24.8947 1281.91 1310.99)" fill="#F82508"/>
<ellipse cx="1209.45" cy="1154.84" rx="240.976" ry="229.517" transform="rotate(-24.8947 1209.45 1154.84)" fill="#FF974D"/>
<ellipse cx="1106.49" cy="1076.11" rx="120.488" ry="114.759" transform="rotate(-24.8947 1106.49 1076.11)" fill="#FFD84D"/>
<ellipse cx="1064.52" cy="842.556" rx="60.2439" ry="57.3793" transform="rotate(-24.8947 1064.52 842.556)" fill="#8B8899"/>
</g>
<g clip-path="url(#clip0)">
<path d="M618.231 2437.18L618.314 2437.19L618.692 2434.02C618.949 2432.38 619.232 2430.74 619.293 2429.09L723.159 1570.13C725.192 1555.74 719.742 1540.72 707.285 1531.37C693.792 1521.24 676.104 1520.7 662.295 1528.5L662.273 1528.46L-127.355 1865.37L-127.169 1865.82C-136.378 1868.01 -144.537 1873.33 -150.248 1880.88C-156.807 1889.62 -159.627 1900.6 -158.09 1911.42C-156.552 1922.23 -150.783 1932 -142.05 1938.56L553.447 2460.64C562.186 2467.2 573.17 2470.01 583.985 2468.47C594.801 2466.93 604.561 2461.16 611.122 2452.42C614.643 2447.73 616.962 2442.54 618.231 2437.18ZM252.743 2137.61C226.361 2117.8 220.553 2081.05 240.349 2054.68C260.153 2028.3 297.532 2022.97 323.922 2042.78C349.652 2062.1 354.992 2099.48 335.182 2125.87C330.547 2132.06 324.735 2137.28 318.08 2141.22C311.425 2145.16 304.057 2147.75 296.399 2148.84C288.741 2149.93 280.943 2149.5 273.451 2147.58C265.96 2145.65 258.923 2142.26 252.743 2137.61ZM612.438 1756.51L417.442 2016.28L417.423 2016.27L417.331 2016.43C409.249 2027.2 394.182 2029.1 383.681 2021.22L383.559 2021.12L327.622 1979.14C316.846 1971.05 314.481 1956.06 322.563 1945.29L322.692 1945.16L322.673 1945.14L517.146 1686.07C517.316 1685.83 517.424 1685.55 517.604 1685.31C525.3 1675.06 539.297 1672.95 549.684 1679.57L549.795 1679.42L607.515 1722.75C618.014 1730.73 620.365 1745.29 612.762 1755.97L612.808 1756L612.438 1756.51Z" fill="#F82508" fill-opacity="0.1"/>
</g>
<defs>
<clipPath id="clip0">
<rect width="1147.79" height="1147.79" fill="white" transform="translate(342.059 1062) rotate(36.894)"/>
</clipPath>
</defs>
</svg>
