<svg width="26" height="26" viewBox="0 0 26 26" fill="none" xmlns="http://www.w3.org/2000/svg">
<path d="M26 13.0805C26 5.85435 20.1768 0 13 0C5.81831 0 0 5.85435 0 13.0805C0 19.6077 4.75231 25.0198 10.9688 26V16.8624H7.66756V13.0813H10.9688V10.1979C10.9688 6.92042 12.9066 5.1104 15.8771 5.1104C17.2998 5.1104 18.7891 5.36547 18.7891 5.36547V8.5841H17.147C15.535 8.5841 15.0312 9.59375 15.0312 10.6279V13.0805H18.6363L18.057 16.8616H15.0312V25.9992C21.2428 25.019 26 19.6069 26 13.0797V13.0805Z" fill="#FFD84D"/>
</svg>
