<svg width="26" height="22" viewBox="0 0 26 22" fill="none" xmlns="http://www.w3.org/2000/svg">
<path d="M25.9487 2.95059C24.9756 3.37838 23.9449 3.66089 22.8897 3.78909C24.002 3.12146 24.8348 2.07337 25.2337 0.838903C24.1816 1.44909 23.0365 1.8825 21.844 2.12184C21.0421 1.26503 19.9798 0.696816 18.822 0.50537C17.6642 0.313924 16.4755 0.509944 15.4405 1.06302C14.4055 1.61609 13.5819 2.4953 13.0976 3.56423C12.6132 4.63316 12.4952 5.83205 12.7619 6.9749C8.33129 6.76771 4.40367 4.63896 1.77685 1.42309C1.29868 2.23631 1.04859 3.1634 1.05292 4.10678C1.05226 4.98376 1.26818 5.84733 1.6815 6.62081C2.09481 7.39429 2.69273 8.05373 3.42217 8.54059C2.57686 8.51504 1.74997 8.28742 1.01067 7.87678V7.94096C1.01041 9.17192 1.43577 10.3651 2.21467 11.3183C2.99357 12.2715 4.07809 12.926 5.28442 13.171C4.82746 13.2931 4.35665 13.3557 3.88367 13.3571C3.5416 13.3571 3.21498 13.3238 2.88917 13.2637C3.23247 14.3229 3.89748 15.2488 4.79164 15.9124C5.6858 16.5761 6.76461 16.9444 7.87792 16.9662C5.99162 18.4434 3.66412 19.2448 1.26823 19.242C0.843865 19.2437 0.419785 19.2198 -0.00170898 19.1705C2.44236 20.7366 5.28471 21.5679 8.18748 21.5658C17.9919 21.5658 23.3495 13.4448 23.3495 6.41184C23.3495 6.18759 23.3495 5.95928 23.3325 5.73015C24.3805 4.97903 25.2837 4.04417 25.9983 2.9709L25.9487 2.95059Z" fill="#FFD84D"/>
</svg>
